<svg width="19" height="26" viewBox="0 0 19 26" fill="none" xmlns="http://www.w3.org/2000/svg">
<path d="M17.5 0.157565L15.625 2.34507L12.9688 0.157565C12.8338 0.0553836 12.6692 8.35447e-05 12.5 8.35447e-05C12.3308 8.35447e-05 12.1662 0.0553836 12.0312 0.157565L9.375 2.34507L6.71875 0.157565C6.58384 0.0553836 6.41924 8.35447e-05 6.25 8.35447e-05C6.08076 8.35447e-05 5.91616 0.0553836 5.78125 0.157565L3.125 2.34507L1.25 0.157565C0.732422 -0.228177 0 0.138034 0 0.782565V24.2201C0 24.8646 0.732422 25.2308 1.25 24.8451L3.125 22.6576L5.78125 24.8451C5.91616 24.9472 6.08076 25.0025 6.25 25.0025C6.41924 25.0025 6.58384 24.9472 6.71875 24.8451L9.375 22.6576L12.0312 24.8451C12.1662 24.9472 12.3308 25.0025 12.5 25.0025C12.6692 25.0025 12.8338 24.9472 12.9688 24.8451L15.625 22.6576L17.5 24.8451C18.0127 25.2308 18.75 24.8646 18.75 24.2201V0.782565C18.75 0.138034 18.0176 -0.228177 17.5 0.157565ZM15.625 17.5794C15.625 17.7943 15.4492 17.9701 15.2344 17.9701H3.51562C3.30078 17.9701 3.125 17.7943 3.125 17.5794V16.7982C3.125 16.5833 3.30078 16.4076 3.51562 16.4076H15.2344C15.4492 16.4076 15.625 16.5833 15.625 16.7982V17.5794ZM15.625 12.8919C15.625 13.1068 15.4492 13.2826 15.2344 13.2826H3.51562C3.30078 13.2826 3.125 13.1068 3.125 12.8919V12.1107C3.125 11.8958 3.30078 11.7201 3.51562 11.7201H15.2344C15.4492 11.7201 15.625 11.8958 15.625 12.1107V12.8919ZM15.625 8.20444C15.625 8.41928 15.4492 8.59507 15.2344 8.59507H3.51562C3.30078 8.59507 3.125 8.41928 3.125 8.20444V7.42319C3.125 7.20835 3.30078 7.03257 3.51562 7.03257H15.2344C15.4492 7.03257 15.625 7.20835 15.625 7.42319V8.20444Z" fill="black"/>
</svg>
